<svg width="550" height="459" viewBox="0 0 550 459" fill="none" xmlns="http://www.w3.org/2000/svg">
<g opacity="0.2">
<path d="M523.429 426.202H33.0503" stroke="#FFA70B" stroke-width="0.772891" stroke-linecap="square"/>
<path d="M523.434 243.006L33.0552 243.006" stroke="#FFA70B" stroke-width="0.772891" stroke-linecap="square"/>
<path d="M523.434 61.9922L33.0552 61.9922" stroke="#FFA70B" stroke-width="0.772891" stroke-linecap="square"/>
<path d="M523.434 336.058H33.0552" stroke="#FFA70B" stroke-width="0.772891" stroke-linecap="square"/>
<path d="M523.434 154.317L33.0552 154.317" stroke="#FFA70B" stroke-width="0.772891" stroke-linecap="square"/>
<path d="M523.434 396.396H33.0552" stroke="#FFA70B" stroke-width="0.772891" stroke-linecap="square"/>
<path d="M523.434 214.655L33.0552 214.655" stroke="#FFA70B" stroke-width="0.772891" stroke-linecap="square"/>
<path d="M523.434 305.525H33.0552" stroke="#FFA70B" stroke-width="0.772891" stroke-linecap="square"/>
<path d="M523.434 122.33L33.0552 122.33" stroke="#FFA70B" stroke-width="0.772891" stroke-linecap="square"/>
<path d="M523.434 365.864H33.0552" stroke="#FFA70B" stroke-width="0.772891" stroke-linecap="square"/>
<path d="M523.434 182.668L33.0552 182.668" stroke="#FFA70B" stroke-width="0.772891" stroke-linecap="square"/>
<path d="M523.434 274.993H33.0552" stroke="#FFA70B" stroke-width="0.772891" stroke-linecap="square"/>
<path d="M523.434 93.9785L33.0552 93.9785" stroke="#FFA70B" stroke-width="0.772891" stroke-linecap="square"/>
<path d="M51.7654 35.5939V458.091" stroke="#FFA70B" stroke-width="0.772891" stroke-linecap="square"/>
<path d="M234.242 35.5942V458.091" stroke="#FFA70B" stroke-width="0.772891" stroke-linecap="square"/>
<path d="M415.253 35.5942V458.091" stroke="#FFA70B" stroke-width="0.772891" stroke-linecap="square"/>
<path d="M141.907 35.5942V458.091" stroke="#FFA70B" stroke-width="0.772891" stroke-linecap="square"/>
<path d="M323.654 35.5942V458.091" stroke="#FFA70B" stroke-width="0.772891" stroke-linecap="square"/>
<path d="M506.115 35.5942V458.091" stroke="#FFA70B" stroke-width="0.772891" stroke-linecap="square"/>
<path d="M81.573 35.5942V458.091" stroke="#FFA70B" stroke-width="0.772891" stroke-linecap="square"/>
<path d="M263.316 35.5942V458.091" stroke="#FFA70B" stroke-width="0.772891" stroke-linecap="square"/>
<path d="M445.772 35.5942V458.091" stroke="#FFA70B" stroke-width="0.772891" stroke-linecap="square"/>
<path d="M172.44 35.5942V458.091" stroke="#FFA70B" stroke-width="0.772891" stroke-linecap="square"/>
<path d="M354.913 35.5942V458.091" stroke="#FFA70B" stroke-width="0.772891" stroke-linecap="square"/>
<path d="M112.096 35.5942V458.091" stroke="#FFA70B" stroke-width="0.772891" stroke-linecap="square"/>
<path d="M294.572 35.5942V458.091" stroke="#FFA70B" stroke-width="0.772891" stroke-linecap="square"/>
<path d="M476.319 35.5942V458.091" stroke="#FFA70B" stroke-width="0.772891" stroke-linecap="square"/>
<path d="M202.974 35.5942V458.091" stroke="#FFA70B" stroke-width="0.772891" stroke-linecap="square"/>
<path d="M383.994 35.5942V458.091" stroke="#FFA70B" stroke-width="0.772891" stroke-linecap="square"/>
</g>
<circle opacity="0.2" cx="104.38" cy="117.698" r="78.8796" stroke="#FFA70B" stroke-width="9"/>
<circle opacity="0.2" cx="410.398" cy="295.323" r="111.72" fill="#FFA70B" stroke="#FFA70B" stroke-width="7"/>
<path d="M50.2031 431.268L55.6198 426.268C58.6789 423.445 63.394 423.445 66.4531 426.268V426.268C69.5122 429.092 74.2274 429.092 77.2865 426.268V426.268C80.3455 423.445 85.0607 423.445 88.1198 426.268V426.268C91.1789 429.092 95.894 429.092 98.9531 426.268V426.268C102.012 423.445 106.727 423.445 109.786 426.268V426.268C112.846 429.092 117.561 429.092 120.62 426.268V426.268C123.679 423.445 128.394 423.445 131.453 426.268V426.268C134.512 429.092 139.227 429.092 142.286 426.268V426.268C145.346 423.445 150.061 423.445 153.12 426.268V426.268C156.179 429.092 160.894 429.092 163.953 426.268V426.268C167.012 423.445 171.727 423.445 174.786 426.268L176.203 427.576C178.437 429.639 181.902 429.569 184.053 427.419L190.203 421.268" stroke="#FFA70B" stroke-width="1.4"/>
<line x1="382.173" y1="77.2316" x2="503.45" y2="77.2316" stroke="#FFA70B" stroke-width="1.4" stroke-linecap="square"/>
<path d="M499.85 82.7526L505.267 77.335L499.932 72" stroke="#FFA70B" stroke-width="1.4" stroke-linecap="square"/>
<path d="M114.214 78.2312C124.025 95.9093 130.203 113.378 132.278 127.315C133.316 134.286 133.322 140.335 132.269 145.07C131.216 149.806 129.126 153.144 126.039 154.858C122.952 156.571 119.013 156.578 114.437 154.966C109.862 153.354 104.732 150.149 99.3661 145.58C88.6381 136.445 77.0831 121.96 67.2727 104.281C57.4622 86.6034 51.2841 69.1342 49.2088 55.1978C48.1707 48.2268 48.1651 42.1781 49.2179 37.4432C50.2709 32.7071 52.3607 29.3682 55.448 27.6549C58.5353 25.9416 62.4743 25.9349 67.0503 27.5471C71.6252 29.1589 76.7549 32.3641 82.121 36.9332C92.849 46.0678 104.404 60.5531 114.214 78.2312Z" stroke="#FFA70B" stroke-width="1.4"/>
<path d="M113.915 104.813C103.704 122.263 91.821 136.48 80.8873 145.368C75.4183 149.813 70.2168 152.9 65.6062 154.407C60.9947 155.915 57.0568 155.818 54.0094 154.035C50.9621 152.251 48.949 148.866 48.0044 144.107C47.0599 139.349 47.2036 133.302 48.4005 126.357C50.7934 112.471 57.3686 95.1476 67.58 77.6981C77.7914 60.2485 89.6739 46.0307 100.608 37.1433C106.077 32.6978 111.278 29.6106 115.889 28.1036C120.5 26.5963 124.438 26.6929 127.485 28.4762C130.533 30.2595 132.546 33.6453 133.491 38.4041C134.435 43.1619 134.291 49.2089 133.094 56.1543C130.702 70.0397 124.126 87.3633 113.915 104.813Z" stroke="#FFA70B" stroke-width="1.4"/>
<path d="M88.4864 118.004C68.3402 116.303 50.3909 111.702 37.6611 105.662C31.2937 102.641 26.2672 99.2765 22.9215 95.7645C19.5749 92.2517 17.9662 88.6562 18.2632 85.1379C18.5602 81.6196 20.7488 78.3446 24.6368 75.4425C28.524 72.541 34.0433 70.0664 40.8271 68.1553C54.3893 64.3346 72.8557 62.8078 93.0019 64.5084C113.148 66.2089 131.097 70.8096 143.827 76.8496C150.195 79.8708 155.221 83.2356 158.567 86.7475C161.913 90.2603 163.522 93.8559 163.225 97.3742C162.928 100.892 160.739 104.167 156.851 107.07C152.964 109.971 147.445 112.446 140.661 114.357C127.099 118.177 108.633 119.704 88.4864 118.004Z" stroke="#FFA70B" stroke-width="1.4"/>
<circle cx="90.7449" cy="91.2559" r="7.25919" transform="rotate(-10.1751 90.7449 91.2559)" stroke="#FFA70B" stroke-width="1.4"/>
<circle cx="90.7446" cy="91.2561" r="1.97132" transform="rotate(-10.1751 90.7446 91.2561)" fill="#FFA70B"/>
<rect x="120.703" y="93.872" width="230.392" height="307.862" rx="5.5" fill="white"/>
<rect x="120.703" y="93.872" width="230.392" height="307.862" rx="5.5" fill="url(#paint0_linear)"/>
<rect x="120.703" y="93.872" width="230.392" height="307.862" rx="5.5" stroke="#FFA70B"/>
<line x1="120.203" y1="134.987" x2="351.595" y2="134.987" stroke="#FFA70B"/>
<circle cx="139.611" cy="114.982" r="2.71567" fill="#FFA70B"/>
<circle cx="153.732" cy="114.982" r="2.71567" fill="#FFA70B"/>
<circle cx="167.854" cy="114.982" r="2.71567" fill="#FFA70B"/>
<g opacity="0.1">
<path fill-rule="evenodd" clip-rule="evenodd" d="M143.584 199.655H326.995V161.879H143.584V199.655Z" fill="#FFA70B"/>
<path fill-rule="evenodd" clip-rule="evenodd" d="M143.584 199.655H326.995V161.879H143.584V199.655Z" stroke="white" stroke-width="1.5" stroke-linecap="round" stroke-linejoin="round"/>
<path fill-rule="evenodd" clip-rule="evenodd" d="M143.584 199.655H326.995V161.879H143.584V199.655Z" stroke="url(#paint1_linear)" stroke-width="1.5" stroke-linecap="round" stroke-linejoin="round"/>
</g>
<path d="M325.781 162.267L145.325 199.655" stroke="white" stroke-width="1.5" stroke-linecap="round" stroke-linejoin="round"/>
<path d="M325.781 162.267L145.325 199.655" stroke="url(#paint2_linear)" stroke-width="1.5" stroke-linecap="round" stroke-linejoin="round"/>
<path d="M328.214 200.169L145.325 162.267" stroke="white" stroke-width="1.5" stroke-linecap="round" stroke-linejoin="round"/>
<path d="M328.214 200.169L145.325 162.267" stroke="url(#paint3_linear)" stroke-width="1.5" stroke-linecap="round" stroke-linejoin="round"/>
<g opacity="0.1">
<path fill-rule="evenodd" clip-rule="evenodd" d="M143.584 248.614H326.995V210.838H143.584V248.614Z" fill="#FFA70B"/>
<path fill-rule="evenodd" clip-rule="evenodd" d="M143.584 248.614H326.995V210.838H143.584V248.614Z" stroke="white" stroke-width="1.5" stroke-linecap="round" stroke-linejoin="round"/>
<path fill-rule="evenodd" clip-rule="evenodd" d="M143.584 248.614H326.995V210.838H143.584V248.614Z" stroke="url(#paint4_linear)" stroke-width="1.5" stroke-linecap="round" stroke-linejoin="round"/>
</g>
<path d="M325.781 211.225L145.325 248.614" stroke="white" stroke-width="1.5" stroke-linecap="round" stroke-linejoin="round"/>
<path d="M325.781 211.225L145.325 248.614" stroke="url(#paint5_linear)" stroke-width="1.5" stroke-linecap="round" stroke-linejoin="round"/>
<path d="M328.214 249.127L145.325 211.226" stroke="white" stroke-width="1.5" stroke-linecap="round" stroke-linejoin="round"/>
<path d="M328.214 249.127L145.325 211.226" stroke="url(#paint6_linear)" stroke-width="1.5" stroke-linecap="round" stroke-linejoin="round"/>
<g opacity="0.1">
<path fill-rule="evenodd" clip-rule="evenodd" d="M143.584 358.318H326.995V259.796H143.584V358.318Z" fill="#FFA70B"/>
<path fill-rule="evenodd" clip-rule="evenodd" d="M143.584 358.318H326.995V259.796H143.584V358.318Z" stroke="white" stroke-width="1.5" stroke-linecap="round" stroke-linejoin="round"/>
<path fill-rule="evenodd" clip-rule="evenodd" d="M143.584 358.318H326.995V259.796H143.584V358.318Z" stroke="url(#paint7_linear)" stroke-width="1.5" stroke-linecap="round" stroke-linejoin="round"/>
</g>
<path d="M325.781 260.807L145.325 358.317" stroke="white" stroke-width="1.5" stroke-linecap="round" stroke-linejoin="round"/>
<path d="M325.781 260.807L145.325 358.317" stroke="url(#paint8_linear)" stroke-width="1.5" stroke-linecap="round" stroke-linejoin="round"/>
<path d="M328.214 359.657L145.325 260.808" stroke="white" stroke-width="1.5" stroke-linecap="round" stroke-linejoin="round"/>
<path d="M328.214 359.657L145.325 260.808" stroke="url(#paint9_linear)" stroke-width="1.5" stroke-linecap="round" stroke-linejoin="round"/>
<line x1="52.3465" y1="277.276" x2="81.7245" y2="277.276" stroke="#FFA70B" stroke-width="1.4" stroke-linecap="round" stroke-linejoin="round"/>
<line x1="52.3445" y1="289.719" x2="81.7226" y2="289.719" stroke="#FFA70B" stroke-width="1.4" stroke-linecap="round" stroke-linejoin="round"/>
<line x1="52.3445" y1="302.162" x2="81.7226" y2="302.162" stroke="#FFA70B" stroke-width="1.4" stroke-linecap="round" stroke-linejoin="round"/>
<rect x="435.609" y="143.146" width="82.6316" height="82.6316" stroke="#FFA70B"/>
<rect x="-0.5" y="0.5" width="5.89626" height="5.89626" transform="matrix(-1 0 0 1 437.558 139.198)" fill="#FFA70B" stroke="#FFA70B"/>
<rect x="-0.5" y="0.5" width="5.89626" height="5.89626" transform="matrix(-1 0 0 1 437.558 222.829)" fill="white"/>
<rect x="-0.5" y="0.5" width="5.89626" height="5.89626" transform="matrix(-1 0 0 1 437.558 222.829)" fill="url(#paint10_linear)"/>
<rect x="-0.5" y="0.5" width="5.89626" height="5.89626" transform="matrix(-1 0 0 1 437.558 222.829)" stroke="#FFA70B"/>
<rect x="-0.5" y="0.5" width="5.89626" height="5.89626" transform="matrix(-1 0 0 1 521.189 139.198)" fill="white"/>
<rect x="-0.5" y="0.5" width="5.89626" height="5.89626" transform="matrix(-1 0 0 1 521.189 139.198)" fill="url(#paint11_linear)"/>
<rect x="-0.5" y="0.5" width="5.89626" height="5.89626" transform="matrix(-1 0 0 1 521.189 139.198)" stroke="#FFA70B"/>
<rect x="-0.5" y="0.5" width="5.89626" height="5.89626" transform="matrix(-1 0 0 1 521.189 222.829)" fill="white"/>
<rect x="-0.5" y="0.5" width="5.89626" height="5.89626" transform="matrix(-1 0 0 1 521.189 222.829)" fill="url(#paint12_linear)"/>
<rect x="-0.5" y="0.5" width="5.89626" height="5.89626" transform="matrix(-1 0 0 1 521.189 222.829)" stroke="#FFA70B"/>
<circle cx="476.925" cy="184.462" r="41.3158" stroke="#FFA70B"/>
<line x1="479.879" y1="181.631" x2="474.093" y2="187.416" stroke="#FFA70B" stroke-width="1.2" stroke-linecap="round"/>
<line x1="479.809" y1="187.364" x2="474.023" y2="181.579" stroke="#FFA70B" stroke-width="1.2" stroke-linecap="round"/>
<path opacity="0.3" fill-rule="evenodd" clip-rule="evenodd" d="M517.897 405.014C508.529 405.014 503.233 400.161 499.162 393.559L483.728 402.465C489.303 413.407 500.698 421.756 518.336 421.756C536.375 421.756 549.807 412.452 549.807 395.467C549.807 379.713 540.696 372.706 524.56 365.833L519.812 363.812C511.663 360.307 508.135 358.016 508.135 352.357C508.135 347.778 511.66 344.273 517.223 344.273C522.677 344.273 526.19 346.557 529.446 352.357L544.235 342.925C537.979 331.995 529.298 327.821 517.223 327.821C500.262 327.821 489.409 338.591 489.409 352.739C489.409 368.098 498.514 375.364 512.218 381.163L516.966 383.186C525.628 386.95 530.793 389.241 530.793 395.71C530.793 401.107 525.766 405.014 517.897 405.014ZM443.253 404.164C436.796 404.164 434.11 399.751 431.158 394.53L415.859 403.761C420.291 413.108 429.005 420.869 444.053 420.869C460.707 420.869 472.116 412.042 472.116 392.648V328.706H453.323V392.395C453.323 401.757 449.428 404.164 443.253 404.164Z" fill="#FFA70B"/>
<path d="M405.053 297.391L404.833 291.451L408.617 293.475L407.341 296.203L405.053 297.391Z" fill="#1C1C1C"/>
<path d="M331.832 328.587C325.918 340.415 324.531 348.828 325.059 353.052C325.059 353.052 331.832 348.828 343.716 357.1C349.274 360.969 354.804 366.076 359.204 371.356C360.876 373.116 354.98 370.388 353.924 378.308C352.904 380.536 352.752 378.182 350.668 381.036C345.456 388.173 347.148 393.445 347.148 393.445L348.024 424.509L361.58 428.205C374.868 430.757 387.402 431.975 401.709 430.845C415.085 429.789 430.749 427.589 444.125 422.045L444.566 395.293C444.742 382.386 444.988 355.375 444.566 350.588C444.038 344.604 442.733 333.124 437.218 323.307C432.025 314.067 427.273 307.027 421.817 302.275C417.452 298.473 413.369 295.895 409.585 293.783L405.405 297.699C403.176 298.227 398.537 299.899 395.017 300.603C390.617 301.483 381.112 301.131 374.072 299.723C368.44 298.596 368.909 295.381 369.848 293.915L360.344 298.139L350.84 305.003C346.968 307.936 337.746 316.76 331.832 328.587Z" fill="white"/>
<path d="M331.832 328.587C325.918 340.415 324.531 348.828 325.059 353.052C325.059 353.052 331.832 348.828 343.716 357.1C349.274 360.969 354.804 366.076 359.204 371.356C360.876 373.116 354.98 370.388 353.924 378.308C352.904 380.536 352.752 378.182 350.668 381.036C345.456 388.173 347.148 393.445 347.148 393.445L348.024 424.509L361.58 428.205C374.868 430.757 387.402 431.975 401.709 430.845C415.085 429.789 430.749 427.589 444.125 422.045L444.566 395.293C444.742 382.386 444.988 355.375 444.566 350.588C444.038 344.604 442.733 333.124 437.218 323.307C432.025 314.067 427.273 307.027 421.817 302.275C417.452 298.473 413.369 295.895 409.585 293.783L405.405 297.699C403.176 298.227 398.537 299.899 395.017 300.603C390.617 301.483 381.112 301.131 374.072 299.723C368.44 298.596 368.909 295.381 369.848 293.915L360.344 298.139L350.84 305.003C346.968 307.936 337.746 316.76 331.832 328.587Z" fill="url(#paint13_linear)"/>
<path d="M360.084 376.46C353.22 385.613 348.548 391.381 343.716 394.237C338.883 397.092 328.579 404.973 311.859 388.077C300.723 376.823 279.738 339.5 272.257 322.955C264.777 306.411 264.296 300.441 263.375 296.25C262.454 292.059 264.296 290.063 266.312 290.063C268.328 290.063 269.054 291.773 269.347 292.419C268.614 290.805 267.961 287.167 270.061 286.688C272.161 286.208 273.646 287.756 273.998 288.813C273.353 286.055 273.611 284.319 275.623 283.625C277.636 282.931 279.396 286.897 279.561 287.578C277.86 280.656 275.07 266.669 277.886 266.106C280.702 265.543 280.793 267.338 282.025 270.154C283.011 272.407 285.161 281.712 286.51 287.578C286.686 286.288 285.957 283.971 288.363 283.971C290.915 283.971 292.68 286.52 293.625 292.062C294.458 296.95 295.083 300.428 295.875 306.5C296.667 312.572 298.479 315.211 299.713 318.027C300.923 320.789 323.46 355.212 324.325 356.533C324.19 356.304 323.649 355.069 325.939 352.7C328.491 350.06 338.172 354.108 342.484 356.572C346.796 359.036 353.748 365.284 353.748 365.284C353.748 365.284 355.244 366.956 359.028 370.916C362.812 374.876 362.06 373.826 360.084 376.46Z" fill="#FBE0B1"/>
<path d="M263.085 295.509C263.188 295.765 263.479 295.89 263.735 295.787C263.992 295.685 264.116 295.394 264.014 295.137L263.085 295.509ZM269.269 292.507L268.896 292.839C269.061 293.025 269.339 293.061 269.547 292.923C269.754 292.784 269.828 292.514 269.72 292.289L269.269 292.507ZM274.11 289.075L273.729 289.399C273.893 289.592 274.177 289.632 274.388 289.49C274.599 289.349 274.671 289.071 274.554 288.845L274.11 289.075ZM279.126 286.699L278.684 286.933C278.801 287.155 279.066 287.255 279.302 287.167C279.537 287.078 279.67 286.828 279.612 286.584L279.126 286.699ZM277.541 266.634L277.758 267.085L277.541 266.634ZM281.941 270.77L281.466 270.926L281.941 270.77ZM287.514 293.621C287.581 293.889 287.852 294.052 288.12 293.985C288.388 293.918 288.551 293.647 288.484 293.379L287.514 293.621ZM264.014 295.137C263.64 294.203 263.603 293.296 263.857 292.527C264.109 291.764 264.659 291.103 265.533 290.666L265.085 289.772C263.987 290.321 263.247 291.184 262.907 292.214C262.569 293.238 262.638 294.389 263.085 295.509L264.014 295.137ZM265.533 290.666C265.936 290.464 266.255 290.442 266.52 290.5C266.796 290.561 267.066 290.721 267.342 290.969C267.619 291.218 267.876 291.532 268.135 291.869C268.381 292.191 268.645 292.557 268.896 292.839L269.643 292.175C269.424 291.929 269.205 291.621 268.929 291.261C268.664 290.916 268.36 290.54 268.011 290.225C267.66 289.91 267.239 289.634 266.735 289.524C266.219 289.41 265.668 289.48 265.085 289.772L265.533 290.666ZM269.72 292.289C269.345 291.514 269.067 290.286 269.118 289.199C269.17 288.075 269.546 287.366 270.199 287.18L269.924 286.218C268.606 286.595 268.175 287.939 268.119 289.153C268.061 290.404 268.372 291.798 268.819 292.724L269.72 292.289ZM270.199 287.18C270.988 286.954 271.586 287.18 272.137 287.625C272.729 288.103 273.188 288.762 273.729 289.399L274.491 288.751C274.035 288.214 273.455 287.404 272.765 286.847C272.034 286.256 271.107 285.88 269.924 286.218L270.199 287.18ZM274.554 288.845C274.147 288.057 274.028 286.877 274.278 285.883C274.528 284.889 275.086 284.257 275.901 284.206L275.839 283.208C274.401 283.298 273.61 284.44 273.308 285.64C273.006 286.841 273.134 288.274 273.666 289.304L274.554 288.845ZM275.901 284.206C276.38 284.176 276.739 284.267 277.02 284.416C277.306 284.567 277.539 284.793 277.74 285.07C277.944 285.35 278.106 285.669 278.256 285.998C278.395 286.304 278.543 286.667 278.684 286.933L279.567 286.465C279.444 286.232 279.335 285.954 279.166 285.584C279.008 285.236 278.812 284.843 278.549 284.482C278.284 284.118 277.943 283.774 277.489 283.533C277.031 283.29 276.486 283.167 275.839 283.208L275.901 284.206ZM279.612 286.584C278.822 283.247 277.836 278.537 277.345 274.527C277.098 272.518 276.979 270.708 277.063 269.342C277.105 268.657 277.196 268.111 277.334 267.715C277.476 267.31 277.637 267.143 277.758 267.085L277.324 266.184C276.852 266.411 276.567 266.877 276.39 267.386C276.209 267.904 276.109 268.554 276.065 269.281C275.975 270.739 276.103 272.62 276.352 274.648C276.85 278.712 277.845 283.463 278.639 286.814L279.612 286.584ZM277.758 267.085C278.224 266.861 278.578 266.766 278.862 266.771C279.124 266.775 279.366 266.863 279.622 267.096C279.893 267.342 280.179 267.75 280.49 268.389C280.799 269.024 281.117 269.857 281.466 270.926L282.417 270.615C282.062 269.528 281.727 268.646 281.389 267.952C281.053 267.262 280.7 266.725 280.295 266.357C279.876 265.975 279.405 265.779 278.877 265.771C278.369 265.763 277.852 265.93 277.324 266.184L277.758 267.085ZM281.466 270.926C282.515 274.139 286.28 288.685 287.514 293.621L288.484 293.379C287.254 288.459 283.48 273.871 282.417 270.615L281.466 270.926Z" fill="#1C1C1C"/>
<path d="M286.342 287.05C286.048 286.111 286.321 284.111 288.714 283.971C291.706 283.795 293.206 289.162 294.086 294.618C294.966 300.074 296.022 311.339 298.134 315.387C299.824 318.625 321.539 350.764 328.579 366.252" stroke="#1C1C1C" stroke-linecap="round" stroke-linejoin="round"/>
<path d="M391.297 289.973C396.806 289.514 404.061 288.107 419.022 299.899C426.375 305.03 442.821 322.776 444.271 353.425L444.271 422.309C403.557 438.502 352.164 427.854 347.222 423.981L347.222 392.313" stroke="#1C1C1C" stroke-linecap="round" stroke-linejoin="round"/>
<path d="M324.734 353.841C328.284 349.609 339.827 353.449 350.516 362.417C361.204 371.385 366.991 382.085 363.441 386.316C361.655 388.445 356.652 386.492 354.54 384.733" stroke="#1C1C1C" stroke-linecap="round" stroke-linejoin="round"/>
<path d="M360.049 387.384C358.429 386.962 354.749 385.688 353.687 384.719L361.499 374.688C362.144 376.418 363.718 378.438 364.249 380.594C365.049 383.841 364.977 383.952 364.537 385.184C364.097 386.416 362.073 387.912 360.049 387.384Z" fill="#1C1C1C"/>
<path d="M372.229 294.424V275.786C361.493 274.906 357.796 267.69 356.212 263.466C354.945 260.087 353.631 251.439 353.044 247.626H346.092L351.284 242.151V225.079L350.228 211.703L358.676 214.695L375.22 220.855L379.444 240.391L397.045 232.295L398.277 244.087L385.077 254.119V264.504H405.141V298.12C403.616 298.766 398.91 300.479 392.293 302.168C384.021 304.28 378.565 302.344 372.229 300.936C367.16 299.81 367.183 296.83 367.829 295.48L372.229 294.424Z" fill="white"/>
<path d="M372.229 294.424V275.786C361.493 274.906 357.796 267.69 356.212 263.466C354.945 260.087 353.631 251.439 353.044 247.626H346.092L351.284 242.151V225.079L350.228 211.703L358.676 214.695L375.22 220.855L379.444 240.391L397.045 232.295L398.277 244.087L385.077 254.119V264.504H405.141V298.12C403.616 298.766 398.91 300.479 392.293 302.168C384.021 304.28 378.565 302.344 372.229 300.936C367.16 299.81 367.183 296.83 367.829 295.48L372.229 294.424Z" fill="url(#paint14_linear)"/>
<path d="M369.368 294.179C363.634 296.097 356.5 299.767 348.907 305.724C342.134 311.037 325.526 329.215 324.447 357.807" stroke="#1C1C1C" stroke-linecap="round" stroke-linejoin="round"/>
<path d="M405.14 291.275C407.253 291.275 408.748 292.726 408.748 293.563C409.189 296.643 401.366 300.396 389.761 301.131C378.156 301.866 367.334 298.847 369.578 294.051C370.127 293.456 371.014 293.005 372.043 292.73" stroke="#1C1C1C" stroke-linecap="round" stroke-linejoin="round"/>
<path d="M371.875 298.755L371.875 294.839C372.007 294.34 371.875 293.43 371.875 292.815C371.875 291.495 369.323 295.059 369.499 296.291C369.64 297.277 371.142 298.344 371.875 298.755Z" fill="#1C1C1C"/>
<circle opacity="0.2" cx="362.999" cy="246.219" r="4.65933" fill="#FFA70B"/>
<path d="M345.652 234.33C345.652 236.98 346.173 239.355 346.994 241.048C347.831 242.776 348.892 243.639 349.904 243.639C350.917 243.639 351.977 242.776 352.814 241.048C353.635 239.355 354.156 236.98 354.156 234.33C354.156 231.68 353.635 229.306 352.814 227.613C351.977 225.885 350.917 225.022 349.904 225.022C348.892 225.022 347.831 225.885 346.994 227.613C346.173 229.306 345.652 231.68 345.652 234.33Z" fill="white"/>
<path d="M345.652 234.33C345.652 236.98 346.173 239.355 346.994 241.048C347.831 242.776 348.892 243.639 349.904 243.639C350.917 243.639 351.977 242.776 352.814 241.048C353.635 239.355 354.156 236.98 354.156 234.33C354.156 231.68 353.635 229.306 352.814 227.613C351.977 225.885 350.917 225.022 349.904 225.022C348.892 225.022 347.831 225.885 346.994 227.613C346.173 229.306 345.652 231.68 345.652 234.33Z" fill="url(#paint15_linear)"/>
<path d="M345.652 234.33C345.652 236.98 346.173 239.355 346.994 241.048C347.831 242.776 348.892 243.639 349.904 243.639C350.917 243.639 351.977 242.776 352.814 241.048C353.635 239.355 354.156 236.98 354.156 234.33C354.156 231.68 353.635 229.306 352.814 227.613C351.977 225.885 350.917 225.022 349.904 225.022C348.892 225.022 347.831 225.885 346.994 227.613C346.173 229.306 345.652 231.68 345.652 234.33Z" stroke="#1C1C1C"/>
<line x1="351.404" y1="236.91" x2="351.404" y2="231.751" stroke="#1C1C1C" stroke-linecap="round" stroke-linejoin="round"/>
<path d="M377.592 239.53C379.715 244.986 387.712 231.434 395.28 236.394L396.16 240.938C396.16 240.938 394.268 249.738 384.544 252.73L384.544 264.171L406.72 264.171C409.536 262.411 412.273 254.101 413.707 251.779C415.14 249.457 416.587 243.719 417.974 236.394C419.36 229.068 419.521 221.832 418.788 217.228C417.724 210.546 413.413 208.114 409.629 207.234C406.43 206.489 407.32 201.068 401.094 196.762C394.581 192.256 391.152 192.7 386.107 192.257C381.062 191.814 381.747 189.823 379.443 186.377C377.139 182.931 373.46 180.772 369.765 179.953C364.368 178.756 361.012 179.402 356.52 181.212C349.817 183.913 347.268 188.655 344.979 195.641C342.691 202.626 346.278 209.228 349.818 213.82C353.357 218.412 357.489 218.819 359.966 219.405C362.444 219.991 374.016 215.717 375.744 227.562C376.976 236.01 376.712 235.218 377.592 239.53Z" fill="#1C1C1C"/>
<path d="M395.28 236.394L395.771 236.299L395.731 236.091L395.554 235.975L395.28 236.394ZM377.592 239.53L377.102 239.63L377.11 239.672L377.126 239.712L377.592 239.53ZM375.744 227.562L375.249 227.634L375.744 227.562ZM359.966 219.405L360.081 218.919L359.966 219.405ZM349.818 213.82L349.422 214.125L349.818 213.82ZM344.979 195.641L345.454 195.796L344.979 195.641ZM356.52 181.212L356.707 181.676L356.52 181.212ZM369.765 179.953L369.657 180.441L369.765 179.953ZM379.443 186.377L379.028 186.655L379.443 186.377ZM386.107 192.257L386.15 191.759L386.107 192.257ZM401.094 196.762L401.379 196.351L401.094 196.762ZM409.629 207.234L409.516 207.721L409.629 207.234ZM418.788 217.228L418.294 217.307L418.788 217.228ZM417.974 236.394L418.465 236.487L418.465 236.487L417.974 236.394ZM406.72 264.171L406.72 264.671L406.864 264.671L406.985 264.595L406.72 264.171ZM384.544 264.171L384.044 264.171L384.044 264.671L384.544 264.671L384.544 264.171ZM384.544 252.73L384.397 252.253C384.187 252.317 384.044 252.511 384.044 252.73L384.544 252.73ZM396.16 240.938L396.649 241.043L396.67 240.943L396.651 240.843L396.16 240.938ZM395.554 235.975C393.52 234.642 391.449 234.559 389.494 235.075C387.563 235.585 385.729 236.685 384.122 237.729C383.305 238.26 382.563 238.765 381.861 239.204C381.162 239.641 380.548 239.981 380.015 240.175C379.478 240.371 379.098 240.391 378.824 240.29C378.568 240.195 378.292 239.952 378.058 239.349L377.126 239.712C377.422 240.473 377.86 241 378.478 241.228C379.077 241.449 379.729 241.344 380.358 241.114C380.993 240.883 381.68 240.496 382.391 240.052C383.1 239.609 383.878 239.08 384.666 238.567C386.27 237.526 387.987 236.508 389.75 236.042C391.49 235.583 393.256 235.665 395.006 236.812L395.554 235.975ZM378.082 239.43C377.205 235.136 377.474 235.962 376.238 227.49L375.249 227.634C376.477 236.058 376.218 235.3 377.102 239.63L378.082 239.43ZM376.238 227.49C375.794 224.443 374.707 222.376 373.239 221.007C371.775 219.642 369.981 219.018 368.207 218.766C366.436 218.515 364.655 218.629 363.189 218.763C362.444 218.831 361.801 218.902 361.251 218.939C360.691 218.977 360.309 218.972 360.081 218.919L359.851 219.892C360.243 219.984 360.765 219.974 361.319 219.937C361.883 219.899 362.563 219.824 363.279 219.759C364.734 219.626 366.418 219.522 368.066 219.756C369.71 219.99 371.288 220.555 372.557 221.739C373.823 222.918 374.83 224.759 375.249 227.634L376.238 227.49ZM360.081 218.919C357.565 218.324 353.626 217.943 350.214 213.515L349.422 214.125C353.088 218.882 357.412 219.315 359.851 219.892L360.081 218.919ZM350.214 213.515C346.692 208.946 343.249 202.528 345.454 195.796L344.504 195.485C342.133 202.723 345.864 209.51 349.422 214.125L350.214 213.515ZM345.454 195.796C346.594 192.317 347.784 189.447 349.497 187.116C351.201 184.798 353.438 182.993 356.707 181.676L356.333 180.749C352.899 182.132 350.51 184.049 348.691 186.524C346.882 188.986 345.653 191.979 344.504 195.485L345.454 195.796ZM356.707 181.676C358.933 180.779 360.848 180.183 362.86 179.952C364.869 179.721 367 179.852 369.657 180.441L369.873 179.465C367.132 178.857 364.887 178.712 362.746 178.958C360.608 179.204 358.599 179.836 356.333 180.749L356.707 181.676ZM369.657 180.441C373.247 181.237 376.806 183.333 379.028 186.655L379.859 186.099C377.472 182.53 373.673 180.307 369.873 179.465L369.657 180.441ZM379.028 186.655C379.585 187.488 379.962 188.234 380.3 188.91C380.631 189.575 380.941 190.208 381.349 190.745C382.216 191.887 383.468 192.527 386.063 192.755L386.15 191.759C383.7 191.544 382.773 190.967 382.145 190.141C381.806 189.694 381.539 189.155 381.194 188.464C380.855 187.784 380.454 186.989 379.859 186.099L379.028 186.655ZM386.063 192.755C388.639 192.981 390.682 192.976 392.942 193.474C395.171 193.966 397.597 194.951 400.81 197.173L401.379 196.351C398.078 194.067 395.533 193.022 393.158 192.498C390.814 191.981 388.62 191.976 386.15 191.759L386.063 192.755ZM400.81 197.173C403.819 199.255 405.106 201.597 406.046 203.55C406.509 204.513 406.917 205.45 407.408 206.171C407.917 206.917 408.556 207.497 409.516 207.721L409.743 206.747C409.103 206.598 408.653 206.221 408.234 205.607C407.799 204.968 407.44 204.141 406.947 203.117C405.976 201.097 404.595 198.575 401.379 196.351L400.81 197.173ZM409.516 207.721C411.353 208.148 413.288 208.945 414.89 210.423C416.484 211.894 417.778 214.067 418.294 217.307L419.282 217.149C418.733 213.707 417.341 211.323 415.568 209.688C413.802 208.058 411.69 207.199 409.743 206.747L409.516 207.721ZM418.294 217.307C419.016 221.839 418.861 229.016 417.482 236.301L418.465 236.487C419.859 229.12 420.026 221.824 419.282 217.149L418.294 217.307ZM417.482 236.301C416.79 239.957 416.084 243.209 415.375 245.832C414.661 248.47 413.956 250.423 413.281 251.516L414.132 252.042C414.891 250.813 415.626 248.736 416.34 246.093C417.059 243.435 417.77 240.155 418.465 236.487L417.482 236.301ZM413.281 251.516C412.902 252.132 412.448 253.12 411.949 254.245C411.444 255.384 410.884 256.686 410.279 257.973C409.675 259.26 409.034 260.514 408.376 261.551C407.71 262.6 407.06 263.369 406.455 263.747L406.985 264.595C407.789 264.093 408.537 263.162 409.22 262.087C409.912 260.997 410.574 259.699 411.185 258.398C411.795 257.098 412.364 255.777 412.863 254.65C413.369 253.509 413.795 252.588 414.132 252.042L413.281 251.516ZM406.72 263.671L384.544 263.671L384.544 264.671L406.72 264.671L406.72 263.671ZM385.044 264.171L385.044 252.73L384.044 252.73L384.044 264.171L385.044 264.171ZM384.691 253.208C389.686 251.671 392.678 248.637 394.417 245.987C395.285 244.663 395.841 243.436 396.18 242.537C396.35 242.087 396.466 241.718 396.54 241.46C396.577 241.331 396.604 241.229 396.622 241.159C396.63 241.123 396.637 241.096 396.641 241.076C396.644 241.067 396.645 241.059 396.647 241.054C396.647 241.051 396.648 241.049 396.648 241.047C396.648 241.046 396.648 241.045 396.649 241.045C396.649 241.044 396.649 241.044 396.649 241.044C396.649 241.044 396.649 241.043 396.16 240.938C395.671 240.833 395.671 240.833 395.671 240.833C395.671 240.833 395.671 240.833 395.671 240.833C395.671 240.833 395.671 240.833 395.671 240.833C395.671 240.833 395.671 240.834 395.671 240.836C395.67 240.839 395.669 240.844 395.667 240.851C395.664 240.865 395.659 240.887 395.651 240.917C395.636 240.977 395.613 241.067 395.579 241.184C395.512 241.419 395.404 241.761 395.245 242.183C394.926 243.028 394.401 244.187 393.58 245.438C391.942 247.936 389.125 250.798 384.397 252.253L384.691 253.208ZM396.651 240.843L395.771 236.299L394.789 236.489L395.669 241.033L396.651 240.843Z" fill="#1C1C1C"/>
<path d="M350.58 211.722L351.156 225.219M348.906 243.594L346.179 247.696L352.895 247.696L353.168 250.021L353.713 254.671C355.82 267.708 362.123 273.839 367.617 275.299C370.793 276.142 375.261 275.816 379.524 275.299" stroke="#1C1C1C" stroke-linecap="round" stroke-linejoin="round"/>
<path d="M384.564 252.677C387.6 251.032 393.037 246.655 394.515 243.734C396.326 240.154 396.04 235.895 391.816 235.442C388.601 235.096 385.136 237.381 384.148 238.306" stroke="#1C1C1C" stroke-linecap="round" stroke-linejoin="round"/>
<path d="M372.052 276.139V298.843" stroke="#1C1C1C"/>
<path d="M405.14 264.171V297.523" stroke="#1C1C1C"/>
<path d="M354.944 259.119C356.476 259.119 358.236 259.119 359.38 258.01" stroke="#1C1C1C" stroke-linecap="round" stroke-linejoin="round"/>
<path d="M354.281 234.188L378.658 237.322" stroke="#1C1C1C"/>
<path d="M328.976 352.128L329.041 352.624C329.302 352.589 329.492 352.358 329.475 352.095C329.458 351.832 329.24 351.628 328.976 351.628V352.128ZM325.086 353.948C324.678 354.861 324.485 356.06 324.391 356.995C324.343 357.469 324.319 357.889 324.307 358.191C324.301 358.342 324.298 358.464 324.296 358.549C324.296 358.591 324.295 358.624 324.295 358.647C324.295 358.659 324.295 358.667 324.295 358.674C324.295 358.677 324.295 358.679 324.295 358.681C324.295 358.682 324.295 358.682 324.295 358.683C324.295 358.683 324.295 358.683 324.295 358.683C324.295 358.684 324.295 358.684 324.295 358.684C324.295 358.684 324.295 358.684 324.795 358.684C325.295 358.684 325.295 358.684 325.295 358.684C325.295 358.684 325.295 358.684 325.295 358.684C325.295 358.684 325.295 358.684 325.295 358.684C325.295 358.684 325.295 358.683 325.295 358.683C325.295 358.682 325.295 358.68 325.295 358.678C325.295 358.673 325.295 358.666 325.295 358.656C325.295 358.636 325.295 358.606 325.296 358.567C325.298 358.488 325.3 358.374 325.306 358.231C325.317 357.944 325.34 357.545 325.386 357.095C325.478 356.181 325.659 355.115 325.999 354.356L325.086 353.948ZM325.295 358.684C325.295 358.419 325.279 358.115 325.263 357.804C325.246 357.487 325.229 357.154 325.224 356.811C325.214 356.121 325.255 355.421 325.435 354.797C325.613 354.18 325.923 353.654 326.444 353.277C326.969 352.897 327.761 352.628 328.976 352.628V351.628C327.617 351.628 326.6 351.929 325.857 352.467C325.112 353.007 324.698 353.746 324.474 354.519C324.253 355.284 324.214 356.099 324.224 356.825C324.229 357.19 324.248 357.541 324.264 357.855C324.281 358.175 324.295 358.45 324.295 358.684H325.295ZM328.976 352.128C328.911 351.632 328.911 351.632 328.911 351.632C328.911 351.632 328.911 351.632 328.911 351.632C328.91 351.632 328.91 351.632 328.91 351.632C328.909 351.632 328.908 351.633 328.907 351.633C328.905 351.633 328.902 351.633 328.899 351.634C328.892 351.635 328.883 351.636 328.872 351.638C328.848 351.641 328.816 351.646 328.775 351.654C328.692 351.668 328.576 351.69 328.435 351.721C328.155 351.784 327.77 351.887 327.359 352.047C326.56 352.357 325.543 352.926 325.086 353.948L325.999 354.356C326.29 353.706 326.989 353.263 327.721 352.979C328.074 352.842 328.408 352.752 328.654 352.697C328.777 352.669 328.876 352.651 328.944 352.639C328.978 352.633 329.004 352.629 329.02 352.627C329.029 352.625 329.035 352.625 329.038 352.624C329.04 352.624 329.041 352.624 329.042 352.624C329.042 352.624 329.042 352.624 329.042 352.624C329.042 352.624 329.042 352.624 329.042 352.624C329.042 352.624 329.041 352.624 329.041 352.624C329.041 352.624 329.041 352.624 328.976 352.128Z" fill="#1C1C1C"/>
<path d="M363.124 386.625L376.249 359.625" stroke="#1C1C1C" stroke-linecap="round" stroke-linejoin="round"/>
<defs>
<linearGradient id="paint0_linear" x1="235.899" y1="93.372" x2="235.899" y2="402.234" gradientUnits="userSpaceOnUse">
<stop stop-color="white"/>
<stop offset="1" stop-color="white" stop-opacity="0"/>
</linearGradient>
<linearGradient id="paint1_linear" x1="235.29" y1="161.879" x2="235.29" y2="199.655" gradientUnits="userSpaceOnUse">
<stop stop-color="white"/>
<stop offset="1" stop-color="white" stop-opacity="0"/>
</linearGradient>
<linearGradient id="paint2_linear" x1="235.553" y1="162.267" x2="235.553" y2="199.655" gradientUnits="userSpaceOnUse">
<stop stop-color="white"/>
<stop offset="1" stop-color="white" stop-opacity="0"/>
</linearGradient>
<linearGradient id="paint3_linear" x1="236.769" y1="162.267" x2="236.769" y2="200.169" gradientUnits="userSpaceOnUse">
<stop stop-color="white"/>
<stop offset="1" stop-color="white" stop-opacity="0"/>
</linearGradient>
<linearGradient id="paint4_linear" x1="235.29" y1="210.838" x2="235.29" y2="248.614" gradientUnits="userSpaceOnUse">
<stop stop-color="white"/>
<stop offset="1" stop-color="white" stop-opacity="0"/>
</linearGradient>
<linearGradient id="paint5_linear" x1="235.553" y1="211.225" x2="235.553" y2="248.614" gradientUnits="userSpaceOnUse">
<stop stop-color="white"/>
<stop offset="1" stop-color="white" stop-opacity="0"/>
</linearGradient>
<linearGradient id="paint6_linear" x1="236.769" y1="211.226" x2="236.769" y2="249.127" gradientUnits="userSpaceOnUse">
<stop stop-color="white"/>
<stop offset="1" stop-color="white" stop-opacity="0"/>
</linearGradient>
<linearGradient id="paint7_linear" x1="235.29" y1="259.796" x2="235.29" y2="358.318" gradientUnits="userSpaceOnUse">
<stop stop-color="white"/>
<stop offset="1" stop-color="white" stop-opacity="0"/>
</linearGradient>
<linearGradient id="paint8_linear" x1="235.553" y1="260.807" x2="235.553" y2="358.317" gradientUnits="userSpaceOnUse">
<stop stop-color="white"/>
<stop offset="1" stop-color="white" stop-opacity="0"/>
</linearGradient>
<linearGradient id="paint9_linear" x1="236.769" y1="260.808" x2="236.769" y2="359.657" gradientUnits="userSpaceOnUse">
<stop stop-color="white"/>
<stop offset="1" stop-color="white" stop-opacity="0"/>
</linearGradient>
<linearGradient id="paint10_linear" x1="3.44813" y1="0" x2="3.44813" y2="6.89626" gradientUnits="userSpaceOnUse">
<stop stop-color="white"/>
<stop offset="1" stop-color="white" stop-opacity="0"/>
</linearGradient>
<linearGradient id="paint11_linear" x1="3.44813" y1="0" x2="3.44813" y2="6.89626" gradientUnits="userSpaceOnUse">
<stop stop-color="white"/>
<stop offset="1" stop-color="white" stop-opacity="0"/>
</linearGradient>
<linearGradient id="paint12_linear" x1="3.44813" y1="0" x2="3.44813" y2="6.89626" gradientUnits="userSpaceOnUse">
<stop stop-color="white"/>
<stop offset="1" stop-color="white" stop-opacity="0"/>
</linearGradient>
<linearGradient id="paint13_linear" x1="384.877" y1="293.783" x2="384.877" y2="431.268" gradientUnits="userSpaceOnUse">
<stop stop-color="white"/>
<stop offset="1" stop-color="white" stop-opacity="0"/>
</linearGradient>
<linearGradient id="paint14_linear" x1="375.616" y1="211.703" x2="375.616" y2="303.102" gradientUnits="userSpaceOnUse">
<stop stop-color="white"/>
<stop offset="1" stop-color="white" stop-opacity="0"/>
</linearGradient>
<linearGradient id="paint15_linear" x1="349.904" y1="224.522" x2="349.904" y2="244.139" gradientUnits="userSpaceOnUse">
<stop stop-color="white"/>
<stop offset="1" stop-color="white" stop-opacity="0"/>
</linearGradient>
</defs>
</svg>
